<?xml version="1.0" encoding="UTF-8"?>
<svg width="121px" height="79px" viewBox="0 0 121 79" version="1.1" xmlns="http://www.w3.org/2000/svg" xmlns:xlink="http://www.w3.org/1999/xlink">
    <!-- Generator: Sketch 52.2 (67145) - http://www.bohemiancoding.com/sketch -->
    <title>Group</title>
    <desc>Created with Sketch.</desc>
    <g id="Page-1" stroke="none" stroke-width="1" fill="none" fill-rule="evenodd">
        <g id="Started-Copy" transform="translate(-146.000000, -53.000000)">
            <g id="Group" transform="translate(143.000000, 53.000000)">
                <path d="M13.0113208,43.8 L4,43.8 L4,39.2474227 C4,36.7621413 6.01471863,34.7474227 8.5,34.7474227 L8.51132075,34.7474227 C10.9966021,34.7474227 13.0113208,36.7621413 13.0113208,39.2474227 L13.0113208,43.8 Z M28.7811321,43.8 L19.7698113,43.8 L19.7698113,20.7556701 C19.7698113,18.2703887 21.7845299,16.2556701 24.2698113,16.2556701 L24.2811321,16.2556701 C26.7664134,16.2556701 28.7811321,18.2703887 28.7811321,20.7556701 L28.7811321,43.8 Z M44.5509434,43.8 L35.5396226,43.8 L35.5396226,4.5 C35.5396226,2.01471863 37.5543413,4.56538782e-16 40.0396226,0 L40.0509434,0 C42.5362248,-4.56538782e-16 44.5509434,2.01471863 44.5509434,4.5 L44.5509434,43.8 Z M60.3207547,43.8 L51.309434,43.8 L51.309434,11.2731959 C51.309434,8.7879145 53.3241526,6.77319588 55.809434,6.77319588 L55.8207547,6.77319588 C58.3060361,6.77319588 60.3207547,8.7879145 60.3207547,11.2731959 L60.3207547,43.8 Z M76.090566,43.8 L67.0792453,43.8 L67.0792453,31.9175258 C67.0792453,29.4322444 69.0939639,27.4175258 71.5792453,27.4175258 L71.590566,27.4175258 C74.0758474,27.4175258 76.090566,29.4322444 76.090566,31.9175258 L76.090566,43.8 Z M91.8603774,43.8 L82.8490566,43.8 L82.8490566,11.2731959 C82.8490566,8.7879145 84.8637752,6.77319588 87.3490566,6.77319588 L87.3603774,6.77319588 C89.8456587,6.77319588 91.8603774,8.7879145 91.8603774,11.2731959 L91.8603774,43.8 Z M107.630189,43.8 L98.6188679,43.8 L98.6188679,27.9804124 C98.6188679,25.495131 100.633587,23.4804124 103.118868,23.4804124 L103.130189,23.4804124 C105.61547,23.4804124 107.630189,25.495131 107.630189,27.9804124 L107.630189,43.8 Z M123.4,43.8 L114.388679,43.8 L114.388679,41.5268041 C114.388679,39.0415227 116.403398,37.0268041 118.888679,37.0268041 L118.9,37.0268041 C121.385281,37.0268041 123.4,39.0415227 123.4,41.5268041 L123.4,43.8 Z" id="Combined-Shape" fill="#313131"></path>
                <text id="MusBit" font-family="SFProText-Heavy, SF Pro Text" font-size="34.2" font-weight="600" fill="#FFFFFF">
                    <tspan x="1.12861328" y="77.1">MusBit</tspan>
                </text>
            </g>
        </g>
    </g>
</svg>